<?xml version="1.0" standalone="no"?><!DOCTYPE svg PUBLIC "-//W3C//DTD SVG 1.1//EN" "http://www.w3.org/Graphics/SVG/1.1/DTD/svg11.dtd"><svg t="1606981786601" class="icon" viewBox="0 0 1024 1024" version="1.1" xmlns="http://www.w3.org/2000/svg" p-id="4833" width="16" height="16" xmlns:xlink="http://www.w3.org/1999/xlink"><defs><style type="text/css"></style></defs><path d="M792.89 927.85H167.28c-47.4 0-85.96-38.56-85.96-85.96V182.28c0-47.4 38.56-85.96 85.96-85.96h625.61c47.4 0 85.96 38.56 85.96 85.96v138.51c0 11.05-8.95 20-20 20s-20-8.95-20-20V182.28c0-25.34-20.62-45.96-45.96-45.96H167.28c-25.34 0-45.96 20.62-45.96 45.96v659.61c0 25.34 20.62 45.96 45.96 45.96h625.61c25.34 0 45.96-20.62 45.96-45.96V704.96c0-11.05 8.95-20 20-20s20 8.95 20 20v136.92c0 47.41-38.56 85.97-85.96 85.97z" p-id="4834" fill="#FF5300"></path><path d="M878.98 426.71c6.34 0 12.35 2.52 16.92 7.09 4.57 4.57 7.09 10.58 7.09 16.92v125.15c0 6.34-2.52 12.35-7.09 16.92-4.57 4.57-10.58 7.09-16.92 7.09H521.35c-6.34 0-12.35-2.52-16.92-7.09-4.57-4.57-7.09-10.58-7.09-16.92V450.72c0-6.34 2.52-12.35 7.09-16.92 4.57-4.57 10.58-7.09 16.92-7.09h357.63m0-40H521.35c-35.21 0-64.01 28.81-64.01 64.01v125.15c0 35.21 28.81 64.01 64.01 64.01h357.64c35.21 0 64.01-28.81 64.01-64.01V450.72c0-35.2-28.81-64.01-64.02-64.01z" p-id="4835" fill="#FF5300"></path><path d="M847.16 493.73c-10.16 0-18.39 8.24-18.39 18.39 0 10.16 8.24 18.39 18.39 18.39s18.39-8.24 18.39-18.39c0.01-10.15-8.23-18.39-18.39-18.39z" p-id="4836" fill="#FF5300"></path></svg>