<?xml version="1.0" standalone="no"?><!DOCTYPE svg PUBLIC "-//W3C//DTD SVG 1.1//EN" "http://www.w3.org/Graphics/SVG/1.1/DTD/svg11.dtd"><svg t="1606981853812" class="icon" viewBox="0 0 1072 1024" version="1.1" xmlns="http://www.w3.org/2000/svg" p-id="7515" width="16.75" height="16" xmlns:xlink="http://www.w3.org/1999/xlink"><defs><style type="text/css"></style></defs><path d="M700.697695 872.937571l-137.633157 139.960991a37.827295 37.827295 0 0 1-53.540171 0L371.309251 872.937571H76.547331A77.109485 77.109485 0 0 1 0.019804 794.082211V77.982423A77.109485 77.109485 0 0 1 76.547331 0h918.912284a77.109485 77.109485 0 0 1 76.527527 77.982423v716.099788A77.109485 77.109485 0 0 1 995.459615 872.937571H700.697695zM187.410403 525.217439a71.580881 71.580881 0 0 0 70.998922-72.162839 71.580881 71.580881 0 0 0-70.998922-72.16284 72.162839 72.162839 0 0 0 0 145.489596z m349.175028 0a71.580881 71.580881 0 0 0 70.998923-72.162839 71.580881 71.580881 0 0 0-70.998923-72.16284A71.580881 71.580881 0 0 0 465.586509 453.0546a71.580881 71.580881 0 0 0 70.998922 72.162839z m349.175029 0a71.580881 71.580881 0 0 0 70.998922-72.162839 70.998922 70.998922 0 1 0-141.997844 0 71.580881 71.580881 0 0 0 70.998922 72.162839z" p-id="7516" fill="#FF5300" data-spm-anchor-id="a313x.7781069.0.i24"></path></svg>